<svg width="172" height="44" viewBox="0 0 172 44" fill="none" xmlns="http://www.w3.org/2000/svg">
<g clip-path="url(#clip0_23_4)">
<path d="M22.737 39.5492C13.3432 39.5492 5.73584 31.8582 5.73584 22.361C5.73584 12.8637 13.3432 5.17273 22.737 5.17273C26.656 5.17273 30.5173 6.5711 33.5717 9.0765C35.4735 10.6497 37.0296 12.689 38.0669 14.903C38.2975 15.3109 38.0669 15.8353 37.6635 16.0683C37.2601 16.3014 36.7414 16.0683 36.5109 15.6605C35.5312 13.6795 34.148 11.8732 32.4767 10.4166C29.768 8.14426 26.3102 6.86242 22.737 6.86242C14.3229 6.86242 7.46478 13.796 7.46478 22.3027C7.46478 30.8095 14.3229 37.8013 22.737 37.8013C28.6731 37.8013 34.0904 34.3054 36.6262 28.8284C36.799 28.3623 37.3177 28.1875 37.7788 28.4206C38.2398 28.5954 38.4127 29.1198 38.1822 29.5859C35.4159 35.6455 29.3646 39.5492 22.737 39.5492Z" fill="#65403A"/>
<path d="M9.88537 33.4896C4.81383 33.4896 1.24069 32.0913 0.260964 29.4693C-0.776398 26.6143 1.29833 22.9436 6.13935 19.2729C6.54276 18.9816 7.06144 19.0398 7.3496 19.4477C7.63776 19.8556 7.58012 20.3799 7.17671 20.6713C3.14252 23.7593 1.18306 26.8474 1.87464 28.8867C3.02726 32.033 10.9804 33.14 22.3913 29.5859C22.8524 29.4693 23.3134 29.7024 23.4863 30.1685C23.6016 30.6346 23.3711 31.1008 22.91 31.2755C18.069 32.7904 13.5738 33.4896 9.88537 33.4896Z" fill="#65403A"/>
<path d="M44.4065 14.0873C44.0608 14.0873 43.715 13.8542 43.5997 13.5046C42.8505 11.4653 39.3926 10.4166 34.3211 10.6496H32.9956C32.5345 10.6496 32.1311 10.2418 32.1311 9.77566C32.1311 9.30953 32.5345 8.90168 32.9956 8.90168H34.2635C40.2571 8.61035 44.176 10.0087 45.2134 12.922C45.3863 13.3881 45.1557 13.8542 44.6947 14.029C44.5794 14.0873 44.5218 14.0873 44.4065 14.0873Z" fill="#65403A"/>
<path d="M22.7371 31.1591C22.6219 31.1591 22.5066 31.1591 22.3914 31.1008L18.1843 29.1198C17.7232 28.945 17.5503 28.4206 17.7809 27.9545C18.0114 27.4884 18.4724 27.3136 18.9335 27.5466L23.1406 29.5277C23.6016 29.7024 23.7745 30.2268 23.544 30.693C23.3711 30.9843 23.0829 31.1591 22.7371 31.1591Z" fill="#65403A"/>
<path d="M20.7776 35.4125C20.6624 35.4125 20.5471 35.4125 20.4318 35.3542C19.9708 35.1794 19.7979 34.6551 20.0284 34.1889L21.9879 29.9356C22.2184 29.4694 22.6795 29.2946 23.1405 29.5277C23.6016 29.7025 23.7745 30.2269 23.5439 30.693L21.5845 34.8881C21.4116 35.2377 21.1234 35.4125 20.7776 35.4125Z" fill="#65403A"/>
<path d="M27.6935 29.3528C27.5782 29.3528 27.463 29.3528 27.3477 29.2945L20.432 26.0899C20.0862 25.9151 19.8556 25.5073 19.9709 25.0994C20.0862 24.6916 20.3743 24.4002 20.7777 24.4002L27.6358 24.1672L30.114 22.6523L26.2527 18.4572C26.0798 18.2824 26.0222 18.0493 26.0222 17.8163C26.0222 17.5832 26.1374 17.3501 26.3103 17.1753C26.4256 17.1171 27.2901 16.3596 29.019 16.3596C31.1514 16.3596 33.6295 17.4667 36.3958 19.5642L42.2742 16.8257C42.62 16.6509 43.1386 16.5927 43.715 16.5927C44.8099 16.5927 46.827 16.884 47.3457 18.1076C47.5762 18.632 47.8068 19.5642 46.7694 20.4382C46.2507 20.846 45.4439 21.2539 44.4642 21.72L28.0393 29.2945C27.924 29.3528 27.8087 29.3528 27.6935 29.3528ZM24.4661 26.0317L27.6935 27.4883L43.6573 20.1469C44.5218 19.739 45.6168 19.2729 45.732 18.9816C45.732 18.9816 45.732 18.9233 45.6744 18.865C45.5591 18.6902 44.6947 18.3989 43.5997 18.3989C43.1963 18.3989 42.9657 18.4572 42.8505 18.5154L36.5111 21.4287C36.2229 21.5452 35.8771 21.5452 35.589 21.3122C32.3616 18.6902 30.1716 18.1658 28.9037 18.1658C28.6732 18.1658 28.4427 18.1658 28.2122 18.2241L31.9582 22.2444C32.1311 22.4192 32.2463 22.7105 32.1887 22.9436C32.1311 23.1767 32.0158 23.4097 31.7853 23.5845L28.2122 25.7986C28.0969 25.8569 27.924 25.9151 27.8087 25.9151L24.4661 26.0317Z" fill="#65403A"/>
<path d="M74.3968 15.0846C74.3968 16.4415 73.9924 17.6498 73.1834 18.7093C72.3928 19.7131 71.3034 20.4938 69.9152 21.0515C68.5271 21.6091 66.9596 21.888 65.2129 21.888C63.6133 21.888 62.0597 21.5115 60.552 20.7587C59.0444 20.0059 57.7757 18.9603 56.7461 17.6219L58.8973 15.5865C60.6807 17.7613 62.786 18.8487 65.2129 18.8487C66.2793 18.8487 67.2538 18.7186 68.1363 18.4584C69.1108 18.161 69.8646 17.7427 70.3978 17.2037C71.0046 16.6088 71.308 15.9025 71.308 15.0846C71.308 14.0994 71.0046 13.3558 70.3978 12.8539C69.883 12.4264 69.12 12.1476 68.1088 12.0175C67.5204 11.9431 66.5551 11.9059 65.2129 11.9059C62.7492 11.9059 60.8692 11.4505 59.573 10.5397C58.2767 9.62884 57.6286 8.29047 57.6286 6.52456C57.6286 5.40925 57.955 4.34971 58.6077 3.34593C59.2604 2.34215 60.1567 1.54285 61.2967 0.948014C62.4734 0.316005 63.7788 0 65.2129 0C66.8309 0 68.2926 0.250945 69.598 0.752834C70.9954 1.2919 72.2916 2.13768 73.4867 3.29016L71.6113 5.52078C70.4898 4.60995 69.4693 3.97329 68.55 3.61082C67.6307 3.24834 66.5184 3.0671 65.2129 3.0671C64.4591 3.0671 63.7558 3.2251 63.1031 3.54111C62.4504 3.85711 61.931 4.28 61.5449 4.80977C61.1588 5.33955 60.9657 5.90185 60.9657 6.49668C60.9657 8.09529 62.4274 8.8946 65.3508 8.8946C67.6859 8.8946 69.5337 9.13625 70.8943 9.61955C72.1813 10.0843 73.1006 10.7906 73.6522 11.7386C74.1486 12.5751 74.3968 13.6904 74.3968 15.0846ZM81.7881 12.2126V21.4139H78.8095V0.61342H81.7881V9.14554C82.5236 8.77377 83.3969 8.58789 84.4081 8.58789C84.7759 8.58789 85.6676 8.67153 87.0833 8.83883C89.069 9.08048 90.4112 9.20131 91.1099 9.20131C92.1763 9.20131 93.1048 9.02471 93.8954 8.67153V0.61342H96.9016V21.4139H93.8954V11.7386C93.1048 12.0918 92.1763 12.2684 91.1099 12.2684C90.4112 12.2684 89.069 12.1476 87.0833 11.9059C85.6676 11.7386 84.7759 11.655 84.4081 11.655C83.3969 11.655 82.5236 11.8409 81.7881 12.2126ZM109.395 2.81616L108.264 0.250945H111.574L121.475 21.4139H118.11L116.759 18.3747H110.498C109.321 18.3747 108.264 18.4863 107.327 18.7093C106.499 18.9138 105.81 19.1833 105.258 19.5179C104.762 19.8153 104.431 20.122 104.265 20.4381L103.741 21.4139H100.487L109.395 2.81616ZM111.601 15.3076H115.407L110.912 6.52456L106.361 16.4787C106.766 16.1255 107.382 15.8467 108.209 15.6422C109.147 15.4192 110.278 15.3076 111.601 15.3076ZM128.342 3.65264V10.5676C128.912 10.233 129.546 10.0099 130.245 9.89837C130.76 9.80543 131.422 9.75896 132.231 9.75896H136.147C137.232 9.75896 138.077 9.50802 138.684 9.00613C139.328 8.46706 139.649 7.65846 139.649 6.58033C139.649 5.55796 139.309 4.79583 138.629 4.29394C138.041 3.86641 137.213 3.65264 136.147 3.65264H128.342ZM137.14 18.1238L134.63 12.7982H132.231C131.477 12.7982 130.815 12.8447 130.245 12.9376C129.546 13.0677 128.912 13.2908 128.342 13.6068V21.4139H125.336V0.61342H136.147C137.416 0.61342 138.537 0.855071 139.512 1.33837C140.486 1.82167 141.24 2.50945 141.773 3.4017C142.343 4.34971 142.628 5.46502 142.628 6.74762C142.628 8.30906 142.214 9.59166 141.387 10.5954C140.56 11.5992 139.392 12.2963 137.884 12.6866L139.484 16.0047C139.944 16.6925 140.302 17.1758 140.56 17.4546C140.872 17.8078 141.171 18.0448 141.456 18.1656C141.741 18.2864 142.113 18.3468 142.573 18.3468H142.876L143.538 18.319V21.4139C142.472 21.4139 141.681 21.3768 141.166 21.3024C140.302 21.1537 139.567 20.8656 138.96 20.4381C138.243 19.9176 137.636 19.1462 137.14 18.1238ZM151.453 21.4139H148.502V0.61342H151.453V21.4139ZM160.527 13.077V21.4139H157.521V0.61342H172V3.68052H160.527V9.98202C161.097 9.64743 161.731 9.42437 162.43 9.31284C162.945 9.21989 163.607 9.17342 164.416 9.17342H168.911V12.2684H164.416C163.662 12.2684 163 12.3149 162.43 12.4078C161.731 12.5379 161.097 12.761 160.527 13.077Z" fill="#18465A"/>
<path d="M63.8316 29.0442L62.9322 27.0038H65.5645L73.4397 43.8367H70.7635L69.6886 41.4193H64.709C63.7731 41.4193 62.9322 41.5081 62.1863 41.6855C61.5282 41.8481 60.9798 42.0625 60.5411 42.3286C60.1462 42.5652 59.883 42.8092 59.7514 43.0605L59.3346 43.8367H56.7461L63.8316 29.0442ZM65.5865 38.9798H68.6137L65.0381 31.9938L61.4185 39.9113C61.7403 39.6303 62.2302 39.4086 62.8883 39.2459C63.6341 39.0685 64.5335 38.9798 65.5865 38.9798ZM78.858 43.8367H76.5108V27.2921H78.858V43.8367ZM86.0751 29.7095V35.2096C86.5284 34.9434 87.033 34.766 87.5887 34.6773C87.9982 34.6034 88.5246 34.5664 89.1681 34.5664H92.2831C93.1459 34.5664 93.8186 34.3668 94.3012 33.9676C94.8131 33.5388 95.069 32.8957 95.069 32.0382C95.069 31.225 94.7985 30.6188 94.2574 30.2196C93.7894 29.8795 93.1313 29.7095 92.2831 29.7095H86.0751ZM93.0728 41.2197L91.0766 36.9838H89.1681C88.5685 36.9838 88.042 37.0208 87.5887 37.0947C87.033 37.1982 86.5284 37.3756 86.0751 37.627V43.8367H83.684V27.2921H92.2831C93.2922 27.2921 94.1842 27.4843 94.9593 27.8687C95.7344 28.2531 96.334 28.8002 96.7581 29.5099C97.2115 30.2639 97.4381 31.151 97.4381 32.1712C97.4381 33.4132 97.1091 34.4334 96.451 35.2318C95.7929 36.0302 94.8643 36.5846 93.6651 36.8951L94.9374 39.5342C95.303 40.0813 95.5882 40.4657 95.7929 40.6875C96.0415 40.9684 96.2792 41.1569 96.5058 41.253C96.7325 41.3491 97.0287 41.3972 97.3943 41.3972H97.6356L98.162 41.375V43.8367C97.3138 43.8367 96.685 43.8072 96.2755 43.748C95.5882 43.6297 95.0032 43.4006 94.5206 43.0605C93.9502 42.6465 93.4676 42.0329 93.0728 41.2197ZM120.12 27.2921H122.643L117.422 43.8367H114.834L111.675 34.0563L108.604 43.8367H106.015L100.465 27.2921H102.922L107.266 39.6673L110.337 29.9091L109.503 27.2921H111.96L116.084 39.6673L120.12 27.2921ZM130.935 29.0442L130.036 27.0038H132.668L140.543 43.8367H137.867L136.792 41.4193H131.812C130.877 41.4193 130.036 41.5081 129.29 41.6855C128.632 41.8481 128.083 42.0625 127.645 42.3286C127.25 42.5652 126.986 42.8092 126.855 43.0605L126.438 43.8367H123.85L130.935 29.0442ZM132.69 38.9798H135.717L132.142 31.9938L128.522 39.9113C128.844 39.6303 129.334 39.4086 129.992 39.2459C130.738 39.0685 131.637 38.9798 132.69 38.9798ZM149.033 34.5664C150.012 33.5315 150.897 32.3782 151.687 31.1067C152.477 29.8352 153.105 28.5636 153.573 27.2921H156.315C155.57 29.0515 154.663 30.7371 153.595 32.3486C152.63 33.8124 151.504 35.2539 150.217 36.6733V43.8367H147.848V36.6733C146.561 35.2539 145.435 33.8124 144.47 32.3486C143.402 30.7371 142.496 29.0515 141.75 27.2921H144.492C144.96 28.5636 145.589 29.8352 146.378 31.1067C147.168 32.3782 148.053 33.5315 149.033 34.5664ZM172 38.8024C172 39.8817 171.678 40.8427 171.035 41.6855C170.406 42.4839 169.539 43.1049 168.435 43.5484C167.331 43.992 166.084 44.2137 164.695 44.2137C163.423 44.2137 162.187 43.9144 160.988 43.3155C159.789 42.7168 158.78 41.8851 157.961 40.8206L159.672 39.2016C161.09 40.9314 162.765 41.7964 164.695 41.7964C165.543 41.7964 166.318 41.6929 167.02 41.4859C167.796 41.2493 168.395 40.9167 168.819 40.4879C169.302 40.0148 169.543 39.4529 169.543 38.8024C169.543 38.0188 169.302 37.4274 168.819 37.0282C168.41 36.6881 167.803 36.4663 166.998 36.3628C166.531 36.3037 165.763 36.2741 164.695 36.2741C162.736 36.2741 161.24 35.9119 160.209 35.1874C159.178 34.4629 158.663 33.3984 158.663 31.9938C158.663 31.1067 158.922 30.2639 159.441 29.4655C159.961 28.6671 160.674 28.0314 161.58 27.5582C162.516 27.0555 163.554 26.8042 164.695 26.8042C165.982 26.8042 167.145 27.0038 168.183 27.403C169.295 27.8318 170.326 28.5045 171.276 29.4212L169.784 31.1954C168.892 30.4709 168.081 29.9645 167.349 29.6762C166.618 29.3879 165.733 29.2438 164.695 29.2438C164.096 29.2438 163.536 29.3694 163.017 29.6208C162.498 29.8721 162.085 30.2085 161.778 30.6299C161.471 31.0512 161.317 31.4985 161.317 31.9716C161.317 33.2431 162.48 33.8789 164.805 33.8789C166.662 33.8789 168.132 34.0711 169.214 34.4555C170.238 34.8252 170.969 35.387 171.408 36.141C171.803 36.8064 172 37.6935 172 38.8024Z" fill="#18465A"/>
</g>
<defs>
<clipPath id="clip0_23_4">
<rect width="172" height="44" fill="white"/>
</clipPath>
</defs>
</svg>
