<svg width="17" height="17" viewBox="0 0 17 17" fill="none" xmlns="http://www.w3.org/2000/svg">
<g clip-path="url(#clip0_68_226)">
<path d="M8.49986 0C3.80558 0 0 3.80564 0 8.49992C0 13.194 3.80553 17 8.49975 17C13.194 17 16.9999 13.194 16.9999 8.49992C16.9999 3.80564 13.194 0 8.49986 0ZM12.0857 9.43496H9.35047V12.2948C9.3503 12.7744 8.96157 13.1631 8.4819 13.1631C8.00205 13.1631 7.61332 12.7744 7.61332 12.2946V9.43496H4.95086C4.47113 9.43479 4.08257 9.04606 4.08228 8.56639C4.08228 8.08682 4.47118 7.69792 4.95086 7.69781L7.61326 7.69798V5.15985C7.61326 4.68011 8.00216 4.29127 8.48172 4.29127C8.96157 4.29127 9.35047 4.68017 9.3503 5.15985L9.35047 7.69775L12.0855 7.69803C12.5652 7.69775 12.9542 8.08676 12.954 8.56661C12.9542 9.04635 12.5652 9.43496 12.0857 9.43496Z" fill="#18465A"/>
</g>
<defs>
<clipPath id="clip0_68_226">
<rect width="17" height="17" fill="white"/>
</clipPath>
</defs>
</svg>
